<svg width="13" height="7" viewBox="0 0 13 7" fill="none" xmlns="http://www.w3.org/2000/svg">
<path d="M8.62242 5.92803L11.6975 3.70349C11.8115 3.62617 11.9045 3.52118 11.9678 3.39814C12.0311 3.27511 12.0628 3.13798 12.0599 2.99935C12.057 2.86072 12.0197 2.72503 11.9513 2.60474C11.8829 2.48445 11.7856 2.38343 11.6685 2.31093L8.5033 0.216536C8.36202 0.135051 8.20319 0.0895635 8.04057 0.0840188C7.87796 0.0784741 7.71648 0.113039 7.57013 0.184717C7.42378 0.256394 7.29698 0.36302 7.20072 0.495349C7.10447 0.627677 7.04167 0.781712 7.01776 0.944098L7.04175 2.09447L1.04153 2.21961C0.776304 2.22514 0.524157 2.33676 0.340561 2.52992C0.156964 2.72307 0.0569571 2.98194 0.0625387 3.24956C0.0681204 3.51719 0.178833 3.77166 0.370324 3.957C0.561814 4.14233 0.818395 4.24334 1.08362 4.23781L7.08385 4.11267L7.10784 5.26304C7.13849 5.42428 7.20766 5.57557 7.30935 5.70377C7.41104 5.83197 7.54217 5.93321 7.69138 5.99873C7.8406 6.06424 8.00338 6.09204 8.16562 6.07972C8.32786 6.0674 8.48466 6.01533 8.62242 5.92803Z" fill="#2F2525"/>
</svg>
