<svg width="13" height="7" viewBox="0 0 13 7" fill="none" xmlns="http://www.w3.org/2000/svg">
<path d="M3.61489 0.250936L0.521892 2.45049C0.407227 2.52688 0.313425 2.63112 0.249102 2.75364C0.184779 2.87615 0.151996 3.01302 0.153764 3.15167C0.155532 3.29032 0.191794 3.42631 0.259221 3.54715C0.326647 3.66798 0.423076 3.7698 0.539652 3.84324L3.68773 5.96321C3.82835 6.04583 3.98681 6.09261 4.14937 6.09947C4.31193 6.10633 4.47369 6.07308 4.62062 6.00259C4.76754 5.9321 4.8952 5.8265 4.99253 5.69496C5.08985 5.56341 5.1539 5.40989 5.17911 5.2477L5.16444 4.09718L11.1655 4.02065C11.4307 4.01727 11.6838 3.9077 11.8689 3.71604C12.0541 3.52438 12.1562 3.26633 12.1528 2.99866C12.1494 2.731 12.0407 2.47564 11.8507 2.28876C11.6608 2.10189 11.405 1.9988 11.1397 2.00218L5.1387 2.07871L5.12403 0.928177C5.09469 0.766687 5.02675 0.614848 4.9261 0.485829C4.82545 0.356809 4.69514 0.254503 4.54647 0.187783C4.39779 0.121063 4.23524 0.0919429 4.0729 0.102948C3.91057 0.113953 3.75335 0.164751 3.61489 0.250936Z" fill="#2F2525"/>
</svg>
