<svg width="95" height="91" viewBox="0 0 95 91" fill="none" xmlns="http://www.w3.org/2000/svg">
<path d="M16.4252 16.4252H90.9761L81.6573 56.8069H25.744M81.6573 69.2321H28.8503L13.3189 4H4" stroke="black" stroke-width="6.21258" stroke-linecap="round" stroke-linejoin="round"/>
<path d="M75.4447 87.8699C78.8758 87.8699 81.6573 85.0884 81.6573 81.6573C81.6573 78.2262 78.8758 75.4447 75.4447 75.4447C72.0136 75.4447 69.2321 78.2262 69.2321 81.6573C69.2321 85.0884 72.0136 87.8699 75.4447 87.8699Z" stroke="black" stroke-width="6.21258" stroke-linecap="round" stroke-linejoin="round"/>
<path d="M35.0629 87.8699C38.494 87.8699 41.2755 85.0884 41.2755 81.6573C41.2755 78.2262 38.494 75.4447 35.0629 75.4447C31.6318 75.4447 28.8503 78.2262 28.8503 81.6573C28.8503 85.0884 31.6318 87.8699 35.0629 87.8699Z" stroke="black" stroke-width="6.21258" stroke-linecap="round" stroke-linejoin="round"/>
</svg>
