<svg width="60" height="60" viewBox="0 0 60 60" fill="none" xmlns="http://www.w3.org/2000/svg">
<path d="M54.2677 9.26777L41.0355 22.5H50C51.3807 22.5 52.5 23.6193 52.5 25C52.5 26.3807 51.3807 27.5 50 27.5H35.0017H34.9925C34.3575 27.498 33.723 27.2557 33.2375 26.773L33.227 26.7625C32.99 26.524 32.8108 26.2498 32.6898 25.957C32.5683 25.6643 32.501 25.3438 32.5 25.0075V25V10C32.5 8.6193 33.6193 7.5 35 7.5C36.3807 7.5 37.5 8.6193 37.5 10V18.9645L50.7323 5.73223C51.7085 4.75593 53.2915 4.75593 54.2677 5.73223C55.244 6.70855 55.244 8.29145 54.2677 9.26777Z" fill="black"/>
<path d="M22.5 50C22.5 51.3807 23.6193 52.5 25 52.5C26.3807 52.5 27.5 51.3807 27.5 50V35.0017V34.9925C27.498 34.3077 27.2207 33.688 26.773 33.2375L26.7625 33.227C26.524 32.99 26.2498 32.8108 25.957 32.6898C25.6643 32.5683 25.3438 32.501 25.0075 32.5H25H10C8.6193 32.5 7.5 33.6193 7.5 35C7.5 36.3807 8.6193 37.5 10 37.5H18.9645L5.73223 50.7323C4.75593 51.7085 4.75593 53.2915 5.73223 54.2677C6.70855 55.244 8.29145 55.244 9.26777 54.2677L22.5 41.0355V50Z" fill="black"/>
</svg>
