<svg width="60" height="60" viewBox="0 0 60 60" fill="none" xmlns="http://www.w3.org/2000/svg">
<path d="M54.273 5.73755C54.5102 5.976 54.6893 6.25035 54.8103 6.54305C54.9318 6.83562 54.999 7.15625 55 7.4925V7.5V22.5C55 23.8807 53.8807 25 52.5 25C51.1192 25 50 23.8807 50 22.5V13.5355L36.7677 26.7677C35.7915 27.744 34.2085 27.744 33.2322 26.7677C32.256 25.7915 32.256 24.2085 33.2322 23.2322L46.4645 10H37.5C36.1192 10 35 8.8807 35 7.5C35 6.1193 36.1192 5 37.5 5H52.4995C53.1872 5 53.8105 5.27765 54.2625 5.72695L54.273 5.73755Z" fill="black"/>
<path d="M26.7677 36.7677L13.5355 50H22.5C23.8807 50 25 51.1192 25 52.5C25 53.8807 23.8807 55 22.5 55H7.50172H7.4925C6.85752 54.998 6.2231 54.7557 5.73755 54.273L5.72695 54.2625C5.48988 54.024 5.3108 53.7497 5.1897 53.457C5.06748 53.1622 5 52.839 5 52.5V37.5C5 36.1192 6.1193 35 7.5 35C8.8807 35 10 36.1192 10 37.5V46.4645L23.2322 33.2322C24.2085 32.256 25.7915 32.256 26.7677 33.2322C27.744 34.2085 27.744 35.7915 26.7677 36.7677Z" fill="black"/>
</svg>
