<svg width="47" height="63" viewBox="0 0 47 63" fill="none" xmlns="http://www.w3.org/2000/svg">
<path d="M40.8196 8.05729H31.1332C31.1332 3.78316 27.6582 0.308151 23.384 0.308151C19.1099 0.308151 15.6349 3.78316 15.6349 8.05729H5.94845C2.73982 8.05729 0.136597 10.6605 0.136597 13.8692V56.4894C0.136597 59.6981 2.73982 62.3013 5.94845 62.3013H40.8196C44.0282 62.3013 46.6315 59.6981 46.6315 56.4894V13.8692C46.6315 10.6605 44.0282 8.05729 40.8196 8.05729ZM11.7603 51.6462C10.1499 51.6462 8.85438 50.3507 8.85438 48.7403C8.85438 47.1299 10.1499 45.8344 11.7603 45.8344C13.3707 45.8344 14.6662 47.1299 14.6662 48.7403C14.6662 50.3507 13.3707 51.6462 11.7603 51.6462ZM11.7603 40.0225C10.1499 40.0225 8.85438 38.727 8.85438 37.1166C8.85438 35.5062 10.1499 34.2107 11.7603 34.2107C13.3707 34.2107 14.6662 35.5062 14.6662 37.1166C14.6662 38.727 13.3707 40.0225 11.7603 40.0225ZM11.7603 28.3988C10.1499 28.3988 8.85438 27.1032 8.85438 25.4929C8.85438 23.8825 10.1499 22.5869 11.7603 22.5869C13.3707 22.5869 14.6662 23.8825 14.6662 25.4929C14.6662 27.1032 13.3707 28.3988 11.7603 28.3988ZM23.384 5.15137C24.9944 5.15137 26.29 6.44693 26.29 8.05729C26.29 9.66766 24.9944 10.9632 23.384 10.9632C21.7737 10.9632 20.4781 9.66766 20.4781 8.05729C20.4781 6.44693 21.7737 5.15137 23.384 5.15137ZM38.8823 49.7089C38.8823 50.2417 38.4464 50.6776 37.9137 50.6776H20.4781C19.9453 50.6776 19.5095 50.2417 19.5095 49.7089V47.7717C19.5095 47.2389 19.9453 46.803 20.4781 46.803H37.9137C38.4464 46.803 38.8823 47.2389 38.8823 47.7717V49.7089ZM38.8823 38.0852C38.8823 38.618 38.4464 39.0539 37.9137 39.0539H20.4781C19.9453 39.0539 19.5095 38.618 19.5095 38.0852V36.1479C19.5095 35.6152 19.9453 35.1793 20.4781 35.1793H37.9137C38.4464 35.1793 38.8823 35.6152 38.8823 36.1479V38.0852ZM38.8823 26.4615C38.8823 26.9943 38.4464 27.4302 37.9137 27.4302H20.4781C19.9453 27.4302 19.5095 26.9943 19.5095 26.4615V24.5242C19.5095 23.9915 19.9453 23.5556 20.4781 23.5556H37.9137C38.4464 23.5556 38.8823 23.9915 38.8823 24.5242V26.4615Z" fill="black"/>
</svg>
