<svg width="60" height="60" viewBox="0 0 60 60" fill="none" xmlns="http://www.w3.org/2000/svg">
<path fill-rule="evenodd" clip-rule="evenodd" d="M46.8225 11.25H37.5C36.465 11.25 35.625 12.09 35.625 13.125C35.625 14.1619 36.465 15 37.5 15H42.4275L33.4313 23.9981L36.0825 26.6494L45.0413 17.6906L45 22.5C45 23.5369 45.84 24.375 46.875 24.375C47.91 24.375 48.75 23.5369 48.75 22.5V13.125C48.75 12.57 48.5194 12.1219 48.1575 11.8144C47.8163 11.4657 47.3456 11.25 46.8225 11.25ZM56.25 52.5C56.25 54.5625 54.57 56.25 52.5 56.25H7.5C5.43 56.25 3.75 54.5625 3.75 52.5V7.5C3.75 5.43 5.43 3.75 7.5 3.75H52.5C54.57 3.75 56.25 5.43 56.25 7.5V52.5ZM52.5 0H7.5C3.35812 0 0 3.35812 0 7.5V52.5C0 56.6437 3.35812 60 7.5 60H52.5C56.6419 60 60 56.6437 60 52.5V7.5C60 3.35812 56.6419 0 52.5 0ZM23.9175 33.3562L14.9587 42.3188L15 37.5C15 36.4688 14.16 35.625 13.125 35.625C12.09 35.625 11.25 36.4688 11.25 37.5V46.875C11.25 47.4375 11.4806 47.8875 11.8425 48.1875C12.1819 48.525 12.6544 48.75 13.1775 48.75H22.5C23.535 48.75 24.375 47.9062 24.375 46.875C24.375 45.8438 23.535 45 22.5 45H17.5725L26.5687 36L23.9175 33.3562ZM46.875 35.625C45.84 35.625 45 36.4688 45 37.5L45.0413 42.3188L36.0825 33.3562L33.4313 36L42.4275 45H37.5C36.465 45 35.625 45.8438 35.625 46.875C35.625 47.9062 36.465 48.75 37.5 48.75H46.8225C47.3456 48.75 47.8181 48.525 48.1575 48.1875C48.5194 47.8875 48.75 47.4375 48.75 46.875V37.5C48.75 36.4688 47.91 35.625 46.875 35.625ZM22.5 15C23.535 15 24.375 14.1619 24.375 13.125C24.375 12.09 23.535 11.25 22.5 11.25H13.1775C12.6544 11.25 12.1837 11.4657 11.8425 11.8144C11.4806 12.1219 11.25 12.57 11.25 13.125V22.5C11.25 23.5369 12.09 24.375 13.125 24.375C14.16 24.375 15 23.5369 15 22.5L14.9587 17.6906L23.9175 26.6494L26.5687 23.9981L17.5725 15H22.5Z" fill="black"/>
</svg>
